<svg t="1584510127696" class="icon" viewBox="0 0 1024 1024" version="1.1" xmlns="http://www.w3.org/2000/svg" p-id="8051" width="128" height="128"><path d="M404.053333 806.4c0-61.226667 16.682667-118.4 45.909334-167.381333a25.6 25.6 0 0 1-2.858667 0.085333H203.861333a30.378667 30.378667 0 0 1 0-60.757333h243.242667a30.293333 30.293333 0 0 1 29.354667 22.4 327.296 327.296 0 0 1 305.92-118.485334l-0.725334-47.829333V91.690667a91.306667 91.306667 0 0 0-91.264-91.306667H112.64A91.306667 91.306667 0 0 0 21.333333 91.733333V760.746667a91.306667 91.306667 0 0 0 91.264 91.264h294.570667a327.168 327.168 0 0 1-3.157333-45.653334zM203.818667 213.376h395.392a30.378667 30.378667 0 0 1 0 60.757333H203.861333a30.293333 30.293333 0 1 1 0-60.757333z m0 182.528h304.128a30.378667 30.378667 0 0 1 0 60.757333H203.861333a30.378667 30.378667 0 0 1 0-60.757333z" fill="#1296db" p-id="8052"></path><path d="M722.346667 544.085333a239.744 239.744 0 1 0 0.085333 479.445334 239.744 239.744 0 0 0-0.085333-479.445334z m155.093333 239.701334a41.685333 41.685333 0 0 1-41.514667 41.514666h-72.021333v52.565334a41.685333 41.685333 0 0 1-41.557333 41.514666 41.685333 41.685333 0 0 1-41.514667-41.514666v-52.565334H608.853333a41.685333 41.685333 0 0 1-41.514666-41.514666c0-22.826667 18.688-41.557333 41.514666-41.557334h72.021334v-52.565333c0-22.784 18.730667-41.514667 41.514666-41.514667 22.826667 0 41.557333 18.730667 41.557334 41.514667v52.565333h72.021333c22.784 0 41.514667 18.730667 41.514667 41.557334z" fill="#1296db" p-id="8053"></path></svg>