<svg t="1584556408415" class="icon" viewBox="0 0 1024 1024" version="1.1" xmlns="http://www.w3.org/2000/svg" p-id="2027" width="128" height="128"><path d="M611.461 650.133a59.137 59.137 0 0 1-30.016-9.035 1201.984 1201.984 0 0 1-112.522-84.672c-79.3-66.677-135.222-129.92-166.357-187.712a196.449 196.449 0 0 1-31.061-106.25C271.752 152.812 360.69 64.041 470.342 64c35.019 0 69.739 12.1 103.413 36.064a298.964 298.964 0 0 1 38.6 33.077C641.549 103.423 690.605 64 754.595 64c109.682 0 198.666 88.784 198.912 198.465 0 37.109-10.976 73.919-31.659 106.324-29.344 53.312-80.64 112-152.32 174.272a1406.316 1406.316 0 0 1-125.137 96.696 27.926 27.926 0 0 1-3.136 1.792 56.3 56.3 0 0 1-29.792 8.587z" fill="#2FC99F" p-id="2028"></path><path d="M704.513 959.392H459.267a98.869 98.869 0 0 1-42.255-9.8 28.371 28.371 0 0 1-9.12-5.32c-29.227-18.184-94.609-55.755-120.609-64.446-5.752-1.494-24.1-3.128-49.076-4.37-27.1-1.347-58.252-2.09-87.721-2.09A86.508 86.508 0 0 1 64 787.028V652.435a85.573 85.573 0 0 1 6.8-33.592 86.351 86.351 0 0 1 7.979-14.665 87.07 87.07 0 0 1 10.565-12.779 87.167 87.167 0 0 1 12.8-10.546 86.584 86.584 0 0 1 14.69-7.964 85.982 85.982 0 0 1 33.648-6.789c18.966 0 35.852-5.037 55.4-10.87l1.519-0.453 1.368-0.381 1.368-0.608c0.747-0.284 1.514-0.54 2.28-0.76 27.931-8.523 53.431-15.579 82.686-15.579 21.487 0 35.408 0.447 47.42 2.8 11.537 2.262 21.375 6.22 37.673 12.777 7.42 3.021 15.451 7.937 25.274 15.473 8.839 6.78 18.289 15.04 28.294 23.785 17.028 14.883 36.328 31.752 59.064 47.079 12.911 8.7 22.548 15.762 30.292 21.434 11.209 8.21 18.614 13.633 27.012 17.612 8.429 3.993 17.8 6.455 32.361 8.5a224.021 224.021 0 0 0 24.451 1.562c14.582 0 26.42-2.1 47.91-5.906l2.83-0.5c11.785-2.822 18.079-4.5 24.855-7.667 6.844-3.2 13.99-7.9 26.476-16.584 25.416-17.68 41.317-32.683 61.769-54.184 10.11-10.6 46.641-45.206 92.251-45.206 15.8 0 32.043 4.468 46.966 12.92l0.3 0.228a99.983 99.983 0 0 1 45.067 55.327 90.931 90.931 0 0 1 4.255 20.476 90.959 90.959 0 0 1-0.506 20.642 90.959 90.959 0 0 1-5.154 19.995 90.922 90.922 0 0 1-9.689 18.533 275.958 275.958 0 0 0-4.94 6.384c-99.308 126.386-131.1 173.144-141.2 189.768-14.191 23.542-52.627 56.695-93.621 56.695z m-325.005-278.3c-16.8 0-27.677 9.564-27.7 24.364-0.01 7.608 0.8 13.767 4.782 19.1 3.951 5.29 10.955 9.678 22.711 14.229 10.479 5.41 21.566 11.327 31.8 18.913 1.435 0.973 2.867 2 4.256 3.04l5.32 3.724a33.411 33.411 0 0 1 2.86 2.01l0.008 0.006 0.552 0.416a159.628 159.628 0 0 0 4.94 3.42c46.349 33.03 67.5 44.383 83.826 44.991h2.584l183.687-9.728a28.6 28.6 0 0 0 4.559-0.608 19.663 19.663 0 0 0 13.636-10.391 31.542 31.542 0 0 0 2.953-17.822 38.458 38.458 0 0 0-2.543-10.278 32.9 32.9 0 0 0-5.275-8.937 22.981 22.981 0 0 0-17.976-8.7c-0.452 0-0.9 0.012-1.358 0.037l-177 9.424c-2.783-1.146-9.445-4.338-22.8-12.844-12.985-8.377-26.382-17.938-31.54-21.659a27.145 27.145 0 0 0-0.76-0.532l-3.42-2.432a155.568 155.568 0 0 0-8.74-6.08l-4.788-3.419a292.352 292.352 0 0 0-38.911-24.168 56.955 56.955 0 0 0-25.611-6.08z" fill="#64D1C4" p-id="2029"></path></svg>