<svg t="1584556548847" class="icon" viewBox="0 0 1024 1024" version="1.1" xmlns="http://www.w3.org/2000/svg" p-id="7514" width="128" height="128"><path d="M 998.128 556.397 c -31.9401 57.4922 -134.148 95.8203 -256.16 108.596 v 114.984 a 103.486 103.486 0 0 1 -19.1641 57.4922 c 159.701 -12.776 288.1 -102.208 288.1 -185.253 v -95.8203 c 0 -6.38802 -6.38802 -12.776 -12.776 0 M 671.701 0 C 486.448 0 332.497 57.4922 332.497 127.76 v 6.38802 h 70.9071 c 185.253 0 339.204 57.4922 339.204 127.76 v 57.4922 c 153.313 -12.776 268.936 -63.8802 268.936 -127.76 V 127.76 c 0 -70.2682 -153.313 -127.76 -339.204 -127.76 M 998.128 313.652 c -31.9401 51.1042 -134.148 83.0443 -256.16 95.8203 v 166.089 c 153.313 -12.776 268.936 -76.6563 268.936 -146.925 v -114.984 c 0 -6.38802 -6.38802 -12.776 -12.776 0" fill="#09d8c1" p-id="7515"></path><path d="M 352.299 185.253 C 167.047 185.253 13.0954 242.745 13.0954 313.013 v 57.4922 c 0 70.2682 153.313 134.148 339.204 134.148 s 338.565 -56.8534 338.565 -133.51 v -57.4922 c 0 -70.2682 -146.925 -127.76 -339.204 -127.76 Z m 325.789 313.652 c -38.3281 57.4922 -172.477 102.208 -326.428 102.208 s -288.1 -44.7162 -326.428 -102.208 c -6.38802 -12.776 -12.776 -6.38802 -12.776 0 v 114.984 c 0 83.0443 153.313 153.313 339.204 153.313 s 339.204 -70.2682 339.204 -153.313 v -114.984 c 0 -6.38802 0 -12.776 -12.776 0 Z m 0 243.384 c -38.3281 63.8802 -172.477 114.984 -326.428 114.984 s -288.1 -44.7162 -326.428 -114.984 c -6.38802 -12.776 -12.776 -6.38802 -12.776 0 v 95.8203 c 0 89.4323 153.313 185.253 339.204 185.253 s 339.204 -95.8203 339.204 -185.253 v -95.8203 c 0 -6.38802 0 -12.776 -12.776 0 Z m 0 0" fill="#09d8c1" p-id="7516"></path></svg>