<svg t="1584509362308" class="icon" viewBox="0 0 1045 1024" version="1.1" xmlns="http://www.w3.org/2000/svg" p-id="2057" width="128" height="128"><path d="M747.221333 102.634667a79.274667 79.274667 0 0 1 30.698667 62.656v713.728a79.274667 79.274667 0 0 1-79.274667 79.274666H235.413333c-2.410667 0-4.778667-0.106667-7.146666-0.32l-72.128-0.725333h-40.533334a42.666667 42.666667 0 0 1-42.666666-42.666667v-99.712a42.666667 42.666667 0 0 1 42.133333-42.666666c18.986667-0.234667 33.002667-0.341333 42.090667-0.277334h-1.045334V284.373333a79.274667 79.274667 0 0 1 59.562667-76.8L678.890667 88.533333a79.274667 79.274667 0 0 1 68.330666 14.122667z" fill="#3071F2" p-id="2058"></path><path d="M286.784 315.264l51.242667-7.893333a40 40 0 0 1 46.08 39.552v8.810666c0 21.76-15.850667 40.256-37.354667 43.562667l-51.264 7.893333a40 40 0 0 1-46.08-39.552v-8.810666c0-21.76 15.872-40.256 37.376-43.562667z m0 165.802667l51.242667-7.893334a40 40 0 0 1 46.08 39.552v8.810667c0 21.76-15.850667 40.256-37.354667 43.562667l-51.264 7.893333a40 40 0 0 1-46.08-39.552v-8.810667c0-21.76 15.872-40.256 37.376-43.562666z" fill="#FFFFFF" p-id="2059"></path><path d="M724.629333 306.986667a79.274667 79.274667 0 0 0-102.165333 75.904V958.293333h324.906667a79.274667 79.274667 0 0 0 79.274666-79.274666V456.917333a79.274667 79.274667 0 0 0-56.405333-75.904l-245.610667-74.026666z" fill="#31E082" p-id="2060"></path><path d="M927.082667 491.434667l-51.264-7.893334a40 40 0 0 0-46.08 39.552v8.810667c0 21.76 15.872 40.256 37.354666 43.562667l51.285334 7.893333a40 40 0 0 0 46.08-39.552v-8.810667c0-21.76-15.872-40.256-37.376-43.562666z" fill="#FFFFFF" p-id="2061"></path></svg>