<svg t="1584509506646" class="icon" viewBox="0 0 1059 1024" version="1.1" xmlns="http://www.w3.org/2000/svg" p-id="3141" width="128" height="128"><path d="M952.750809 317.583603H883.710895l-276.159654-212.090615a69.592233 69.592233 0 0 0 9.389428-34.796116 70.696872 70.696872 0 1 0-141.393743 0 71.249191 71.249191 0 0 0 0 17.121898L176.742179 317.583603H106.045307A106.045307 106.045307 0 0 0 0 423.62891v494.325783a106.045307 106.045307 0 0 0 106.045307 106.045307h846.705502a106.045307 106.045307 0 0 0 106.045308-106.045307V423.62891a106.045307 106.045307 0 0 0-106.045308-106.045307zM487.69795 110.463862a69.592233 69.592233 0 0 0 101.074434 13.255663l258.485437 192.20712H211.538296z m-243.020496 690.951456a133.661273 133.661273 0 0 1-78.981661 20.988134 172.875944 172.875944 0 0 1-78.429342-15.464941v-59.098166a116.539374 116.539374 0 0 0 76.220065 27.615966 64.621359 64.621359 0 0 0 36.453074-8.28479 24.854369 24.854369 0 0 0 12.151025-21.540453 30.929881 30.929881 0 0 0-9.389428-21.540453 182.817691 182.817691 0 0 0-51.365696-27.063646q-65.173679-27.615965-65.173679-80.638619a70.144552 70.144552 0 0 1 29.825243-60.202805 130.347357 130.347357 0 0 1 78.429342-21.540453 192.759439 192.759439 0 0 1 68.487594 10.494067v55.231931a113.777778 113.777778 0 0 0-65.725997-18.778857 66.830636 66.830636 0 0 0-34.796117 7.73247 24.30205 24.30205 0 0 0-13.255663 21.540453 27.615965 27.615965 0 0 0 8.837109 19.883496 165.695793 165.695793 0 0 0 44.185544 24.302049 145.259978 145.259978 0 0 1 55.231931 37.557713 73.458468 73.458468 0 0 1 15.464941 46.947142 71.249191 71.249191 0 0 1-28.168285 61.859762z m252.409925 16.56958l-20.988134-63.516721H374.472492l-20.435815 63.516721H289.415318l101.626753-276.159655h70.144553l99.969795 276.159655z m262.903991 0h-165.695793v-276.159655h59.098166v229.764833h103.83603z m202.701187 0h-165.695793v-276.159655h157.963322v48.604099H856.09493v65.725998h91.685005v48.05178H856.09493v67.382956h105.492988z" fill="#0CB05B" p-id="3142"></path><path d="M425.285868 587.667745a100.522114 100.522114 0 0 1-4.970873 23.749731L386.623517 708.625674h74.563107l-31.482201-96.655879a104.38835 104.38835 0 0 1-4.418555-24.30205z" fill="#0CB05B" p-id="3143"></path></svg>