<svg t="1584509722224" class="icon" viewBox="0 0 1024 1024" version="1.1" xmlns="http://www.w3.org/2000/svg" p-id="7797" width="128" height="128"><path d="M986.431169 447.501299H582.815584c-15.958442 0-29.257143 13.298701-29.257142 29.257143v236.051948c0 15.958442 13.298701 29.257143 29.257142 29.257142H985.766234c15.958442 0 29.257143-13.298701 29.257143-29.257142V476.758442c0.664935-15.958442-12.633766-29.257143-28.592208-29.257143z m-301.88052 191.501298c-23.937662 0-43.885714-19.948052-43.885714-43.885714 0-23.937662 19.948052-43.885714 43.885714-43.885714s43.885714 19.948052 43.885715 43.885714c0 23.937662-19.283117 43.885714-43.885715 43.885714z" fill="#54B6ED" p-id="7798"></path><path d="M510.337662 712.81039V476.758442c0-41.890909 26.597403-75.802597 59.179221-75.802598h371.033766v-192.831169c0-15.958442-9.974026-29.257143-22.607792-29.257143h-236.051948c2.65974 13.298701 3.98961 27.262338 3.98961 41.225974H224.415584c0-13.963636 1.32987-27.927273 3.989611-41.225974H30.919481C18.285714 179.532468 8.311688 192.831169 8.311688 208.78961v785.953247c0 15.958442 9.974026 29.257143 22.607793 29.257143h885.693506c12.633766 0 22.607792-13.298701 22.607792-29.257143v-206.12987H568.851948c-31.916883 0-58.514286-33.911688-58.514286-75.802597z" fill="#54B6ED" p-id="7799"></path><path d="M454.483117 6.649351c-113.038961 0-204.135065 91.761039-204.135065 204.135065h408.27013C659.283117 98.41039 567.522078 6.649351 454.483117 6.649351z" fill="#FCBC70" p-id="7800"></path></svg>