<svg t="1584509787020" class="icon" viewBox="0 0 1024 1024" version="1.1" xmlns="http://www.w3.org/2000/svg" p-id="9436" width="128" height="128"><path d="M1011.48047 527.283582a256.894252 256.894252 0 0 1-110.562083 23.73833c-76.41791 0-108.285805-37.883773-170.720864-37.883773a310.386789 310.386789 0 0 0-86.010797 13.332487 21.462051 21.462051 0 0 0-10.080661-2.43887c-21.787234 0-21.949825 13.982852-21.949825 13.982852v464.035567a21.949825 21.949825 0 0 0 43.899651 0V776.210861a304.20832 304.20832 0 0 1 73.979041-10.080661c62.59765 0 94.302953 37.883773 170.720863 37.883773a248.602096 248.602096 0 0 0 118.203875-27.803112 8.77993 8.77993 0 0 0 4.715147-7.641791V534.762782a8.454748 8.454748 0 0 0-12.194347-7.4792z" fill="#1296db" p-id="9437"></path><path d="M831.979676 384.691013V64.060972A64.060972 64.060972 0 0 0 768.081296 0H64.060972A64.060972 64.060972 0 0 0 0 64.060972v831.979676A64.060972 64.060972 0 0 0 64.060972 959.288663h415.908542a64.060972 64.060972 0 0 0 64.060972-64.060972V480.782471a32.51826 32.51826 0 0 1 32.51826-32.51826h191.53255a64.060972 64.060972 0 0 0 63.89838-63.573198z m-448.101619 13.495078a16.25913 16.25913 0 0 1-16.25913 16.25913H144.055891a16.25913 16.25913 0 0 1-16.25913-16.25913v-32.51826a16.25913 16.25913 0 0 1 16.25913-16.25913h223.888218a16.25913 16.25913 0 0 1 16.25913 16.25913z m320.142267-159.989838a16.25913 16.25913 0 0 1-16.25913 16.25913H144.055891a16.25913 16.25913 0 0 1-16.25913-16.25913v-32.51826a16.25913 16.25913 0 0 1 16.25913-16.25913h544.030486a16.25913 16.25913 0 0 1 16.25913 16.25913z" fill="#1296db" p-id="9438"></path></svg>