<svg t="1584556693341" class="icon" viewBox="0 0 1024 1024" version="1.1" xmlns="http://www.w3.org/2000/svg" p-id="16290" width="128" height="128"><path d="M604.339712 933.421289c-221.525002 0-401.056883-179.531881-401.056883-401.056883s179.531881-401.056883 401.056883-401.056883 401.056883 179.531881 401.056884 401.056883-179.531881 401.056883-401.056884 401.056883z" fill="#FFFFFF" p-id="16291"></path><path d="M650.5773 180.434959c-221.525002 0-401.056883 179.531881-401.056884 401.056883 0 94.371638 32.601111 181.067114 87.056707 249.520417 70.981921 63.66699 164.811712 102.409031 267.672282 102.40903 221.525002 0 401.056883-179.531881 401.056883-401.056883 0-94.371638-32.601111-181.067114-87.056707-249.520416-70.891613-63.66699-164.721404-102.409031-267.672281-102.409031z" fill="#FDBCB8" p-id="16292"></path><path d="M604.339712 952.024694c-231.368551 0-419.56998-188.201429-419.569979-419.56998S372.971161 112.794426 604.339712 112.794426c231.368551 0 419.56998 188.201429 419.56998 419.56998s-188.201429 419.660288-419.56998 419.660288z m0-802.113767c-210.958991 0-382.543787 171.584796-382.543786 382.543787s171.584796 382.543787 382.543786 382.543787c210.958991 0 382.543787-171.584796 382.543787-382.543787S815.298704 149.910927 604.339712 149.910927z" fill="#D25245" p-id="16293"></path><path d="M781.613899 374.325778L523.062704 632.876973 414.151512 524.05609c-7.495546-7.495546-19.687098-7.495546-27.182643 0s-7.495546 19.687098 0 27.182644L509.426228 673.696093c7.495546 7.495546 19.687098 7.495546 27.182644 0l272.187671-272.187671c7.495546-7.495546 7.495546-19.687098 0-27.182644s-19.687098-7.495546-27.182644 0z" fill="#FFFFFF" p-id="16294"></path><path d="M788.025752 404.940118L529.474557 663.581621 420.653673 554.670429c-7.495546-7.495546-19.687098-7.495546-27.182644 0s-7.495546 19.687098 0 27.182644L515.928389 704.400741c7.495546 7.495546 19.687098 7.495546 27.182644 0l272.187671-272.187671c7.495546-7.495546 7.495546-19.687098 0-27.182644-7.495546-7.585854-19.687098-7.585854-27.272952-0.090308zM0 159.032013l68.453303-86.334244 71.975306 106.92442zM85.792398 321.947262l-41.812506-42.625276 62.312374-31.517418z" fill="#D25245" p-id="16295"></path></svg>