<svg t="1584556610284" class="icon" viewBox="0 0 1024 1024" version="1.1" xmlns="http://www.w3.org/2000/svg" p-id="11926" width="128" height="128"><path d="M124.681111 463.083506a38.030812 38.030812 0 0 0-53.723876 53.765319l495.93395 495.93395A38.030812 38.030812 0 0 0 620.615061 959.017457z" fill="#002737" p-id="11927"></path><path d="M111.004938 484.440439s-9.18652-8.868791-20.224159 0c-9.379921 10.830424 1.464318 23.13898 1.464317 23.13898l493.01913 493.032944s13.275558 11.051453 21.688476 1.464317c9.821979-10.802795 1.464318-23.152794 1.464318-23.152794z" fill="#F39B38" p-id="11928"></path><path d="M629.635809 0c-2.983892 65.728516-26.896474 122.491541-65.659444 161.337398s-95.608882 62.744624-161.337399 65.728517-122.491541 23.898767-161.337398 65.728516a257.664625 257.664625 0 0 0-68.767666 164.307477L510.100532 794.696166c2.997707-65.728516 23.898767-122.491541 65.728516-161.337398 41.829749-41.829749 95.595068-62.744624 161.323584-65.728517s122.491541-23.898767 161.337398-65.728516 62.73081-95.595068 65.728517-161.323584v-2.983893z m230.69908 493.171087c-35.033106 37.713083-85.925047 50.491326-145.202277 53.185117s-118.043332 23.166608-154.637455 61.998651C524.743707 646.261339 493.523352 678.65591 490.760489 737.933141L205.605375 452.736584c2.693792-59.277231 28.098319-107.185279 63.11761-144.912177s81.504465-52.0109 140.767882-54.704692S527.658527 233.461943 568.383131 198.926153c37.795969-32.049214 77.16677-83.714756 79.860562-142.991987l287.144376 302.215795c-2.693792 59.277231-40.047703 97.2666-75.080808 135.021126z" fill="#002737" p-id="11929"></path><path d="M646.143917 56.348596C643.450125 115.625826 604.037881 167.291369 566.283355 199.312954c-40.738418 34.53579-99.628848 51.527399-158.864636 54.221191s-105.74859 16.977795-140.767881 54.704692S206.185576 393.873782 203.491784 453.10957L488.688341 738.34757c2.762863-59.277231 33.941775-91.671802 69.679411-129.605914 36.580309-38.818228 95.318782-59.304859 154.637455-61.998651s110.169171-15.472034 145.202278-53.185117 72.387017-75.716267 75.080808-134.993498z" fill="#EA5948" p-id="11930"></path></svg>