<svg t="1584509956744" class="icon" viewBox="0 0 1024 1024" version="1.1" xmlns="http://www.w3.org/2000/svg" p-id="2227" width="128" height="128"><path d="M59.21186112 411.29313081L381.59952976 607.99359918c74.31255715 45.4045011 196.07203239 45.4045011 270.38458951 0L974.37178791 411.4502398c74.31255715-45.4045011 74.31255715-119.55994924 0-164.96445032L651.98411927 49.7853211c-74.31255715-45.4045011-196.07203239-45.4045011-270.38458951 0L59.21186112 246.48578948c-74.31255715 45.24739209-74.31255715 119.55994924 0 164.80734133z" fill="#1B8AE0" p-id="2228"></path><path d="M974.2146789 494.08957395L651.98411927 690.63293335c-74.31255715 45.4045011-196.07203239 45.4045011-270.38458951 0L59.21186112 494.08957395c-15.08246403-9.26943102-27.02274804-19.63862503-35.97796109-30.79336404-35.19241606 43.5191931-23.40924106 98.03601619 35.97796109 134.17108625L381.59952976 794.16776455c74.31255715 45.4045011 196.07203239 45.4045011 270.38458951 0l322.38766864-196.70046839c59.23009311-36.13507007 71.17037714-90.65189318 35.97796107-134.17108625-9.11232202 11.15473903-21.05260603 21.52393302-36.13507008 30.79336404z" fill="#1B8AE0" p-id="2229"></path><path d="M974.2146789 680.26373934L651.98411927 876.80709872c-74.31255715 45.4045011-196.07203239 45.4045011-270.38458951 0L59.21186112 680.26373934c-15.08246403-9.26943102-27.02274804-19.63862503-35.97796109-30.79336408-35.19241606 43.5191931-23.40924106 98.03601619 35.97796109 134.17108629L381.59952976 980.34192992c74.31255715 45.4045011 196.07203239 45.4045011 270.38458951 0L974.37178791 783.79857053c59.23009311-36.13507007 71.17037714-90.65189318 35.97796107-134.17108625-9.11232202 10.99763002-21.05260603 21.36682405-36.13507008 30.63625506z" fill="#1B8AE0" p-id="2230"></path></svg>